STARTFONT 2.1
COMMENT ""
COMMENT "Designed and made by"
COMMENT "Thomas Bagli (pyramid!pcsbst!tom@uunet.UU.NET)"
COMMENT "PCS Computer Systeme, West Germany"
COMMENT ""
FONT -Misc-Fixed-Bold-R-Normal--13-120-75-75-C-80-ISO8859-1
SIZE 13 78 78
FONTBOUNDINGBOX 8 13 0 -2
STARTPROPERTIES 19
FONTNAME_REGISTRY ""
FOUNDRY "Misc"
FAMILY_NAME "Fixed"
WEIGHT_NAME "Bold"
SLANT "R"
SETWIDTH_NAME "Normal"
ADD_STYLE_NAME ""
PIXEL_SIZE 13
POINT_SIZE 120
RESOLUTION_X 75
RESOLUTION_Y 75
SPACING "C"
AVERAGE_WIDTH 80
CHARSET_REGISTRY "ISO8859"
CHARSET_ENCODING "1"
DEFAULT_CHAR 0
FONT_DESCENT 2
FONT_ASCENT 11
COPYRIGHT "Public domain font.  Share and enjoy."
ENDPROPERTIES
CHARS 224
STARTCHAR C0
ENCODING 0
SWIDTH 666 0
DWIDTH 8 0
BBX 8 13 0 -2
BITMAP
00
00
00
00
00
00
00
00
00
00
00
00
00
ENDCHAR
STARTCHAR C001
ENCODING 1
SWIDTH 666 0
DWIDTH 8 0
BBX 8 13 0 -2
BITMAP
00
00
00
10
38
7c
fe
7c
38
10
00
00
00
ENDCHAR
STARTCHAR C002
ENCODING 2
SWIDTH 666 0
DWIDTH 8 0
BBX 8 13 0 -2
BITMAP
00
00
00
00
d6
6c
d6
6c
d6
6c
d6
00
00
ENDCHAR
STARTCHAR C003
ENCODING 3
SWIDTH 666 0
DWIDTH 8 0
BBX 8 13 0 -2
BITMAP
00
00
cc
cc
fc
cc
cc
00
7e
18
18
18
18
ENDCHAR
STARTCHAR C004
ENCODING 4
SWIDTH 666 0
DWIDTH 8 0
BBX 8 13 0 -2
BITMAP
00
00
f8
c0
f0
c0
c0
00
3e
30
3c
30
30
ENDCHAR
STARTCHAR C005
ENCODING 5
SWIDTH 666 0
DWIDTH 8 0
BBX 8 13 0 -2
BITMAP
00
00
7c
c4
c0
c4
7c
00
7c
66
7c
66
66
ENDCHAR
STARTCHAR C006
ENCODING 6
SWIDTH 666 0
DWIDTH 8 0
BBX 8 13 0 -2
BITMAP
00
00
c0
c0
c0
c0
f8
00
3e
30
3c
30
30
ENDCHAR
STARTCHAR C007
ENCODING 7
SWIDTH 666 0
DWIDTH 8 0
BBX 8 13 0 -2
BITMAP
00
00
00
00
3c
66
66
3c
00
00
00
00
00
ENDCHAR
STARTCHAR C010
ENCODING 8
SWIDTH 666 0
DWIDTH 8 0
BBX 8 13 0 -2
BITMAP
00
00
18
18
7e
7e
18
18
00
7e
7e
00
00
ENDCHAR
STARTCHAR C011
ENCODING 9
SWIDTH 666 0
DWIDTH 8 0
BBX 8 13 0 -2
BITMAP
00
00
cc
ec
fc
dc
cc
00
30
30
30
30
3e
ENDCHAR
STARTCHAR C012
ENCODING 10
SWIDTH 666 0
DWIDTH 8 0
BBX 8 13 0 -2
BITMAP
00
00
cc
cc
48
78
30
00
7e
18
18
18
18
ENDCHAR
STARTCHAR C013
ENCODING 11
SWIDTH 666 0
DWIDTH 8 0
BBX 8 13 0 -2
BITMAP
18
18
18
18
18
18
f8
f8
00
00
00
00
00
ENDCHAR
STARTCHAR C014
ENCODING 12
SWIDTH 666 0
DWIDTH 8 0
BBX 8 13 0 -2
BITMAP
00
00
00
00
00
00
f8
f8
18
18
18
18
18
ENDCHAR
STARTCHAR C015
ENCODING 13
SWIDTH 666 0
DWIDTH 8 0
BBX 8 13 0 -2
BITMAP
00
00
00
00
00
00
1f
1f
18
18
18
18
18
ENDCHAR
STARTCHAR C016
ENCODING 14
SWIDTH 666 0
DWIDTH 8 0
BBX 8 13 0 -2
BITMAP
18
18
18
18
18
18
1f
1f
00
00
00
00
00
ENDCHAR
STARTCHAR C017
ENCODING 15
SWIDTH 666 0
DWIDTH 8 0
BBX 8 13 0 -2
BITMAP
18
18
18
18
18
18
ff
ff
18
18
18
18
18
ENDCHAR
STARTCHAR C020
ENCODING 16
SWIDTH 666 0
DWIDTH 8 0
BBX 8 13 0 -2
BITMAP
00
00
ff
ff
00
00
00
00
00
00
00
00
00
ENDCHAR
STARTCHAR C021
ENCODING 17
SWIDTH 666 0
DWIDTH 8 0
BBX 8 13 0 -2
BITMAP
00
00
00
00
ff
ff
00
00
00
00
00
00
00
ENDCHAR
STARTCHAR C022
ENCODING 18
SWIDTH 666 0
DWIDTH 8 0
BBX 8 13 0 -2
BITMAP
00
00
00
00
00
00
ff
ff
00
00
00
00
00
ENDCHAR
STARTCHAR C023
ENCODING 19
SWIDTH 666 0
DWIDTH 8 0
BBX 8 13 0 -2
BITMAP
00
00
00
00
00
00
00
00
ff
ff
00
00
00
ENDCHAR
STARTCHAR C024
ENCODING 20
SWIDTH 666 0
DWIDTH 8 0
BBX 8 13 0 -2
BITMAP
00
00
00
00
00
00
00
00
00
00
ff
ff
00
ENDCHAR
STARTCHAR C025
ENCODING 21
SWIDTH 666 0
DWIDTH 8 0
BBX 8 13 0 -2
BITMAP
18
18
18
18
18
18
1f
1f
18
18
18
18
18
ENDCHAR
STARTCHAR C026
ENCODING 22
SWIDTH 666 0
DWIDTH 8 0
BBX 8 13 0 -2
BITMAP
18
18
18
18
18
18
f8
f8
18
18
18
18
18
ENDCHAR
STARTCHAR C027
ENCODING 23
SWIDTH 666 0
DWIDTH 8 0
BBX 8 13 0 -2
BITMAP
18
18
18
18
18
18
ff
ff
00
00
00
00
00
ENDCHAR
STARTCHAR C030
ENCODING 24
SWIDTH 666 0
DWIDTH 8 0
BBX 8 13 0 -2
BITMAP
00
00
00
00
00
00
ff
ff
18
18
18
18
18
ENDCHAR
STARTCHAR C031
ENCODING 25
SWIDTH 666 0
DWIDTH 8 0
BBX 8 13 0 -2
BITMAP
18
18
18
18
18
18
18
18
18
18
18
18
18
ENDCHAR
STARTCHAR C032
ENCODING 26
SWIDTH 666 0
DWIDTH 8 0
BBX 8 13 0 -2
BITMAP
00
06
1c
70
c0
70
1c
06
00
fe
fe
00
00
ENDCHAR
STARTCHAR C033
ENCODING 27
SWIDTH 666 0
DWIDTH 8 0
BBX 8 13 0 -2
BITMAP
00
c0
70
1c
06
1c
70
c0
00
fe
fe
00
00
ENDCHAR
STARTCHAR C034
ENCODING 28
SWIDTH 666 0
DWIDTH 8 0
BBX 8 13 0 -2
BITMAP
00
00
00
00
fe
fe
2c
2c
2c
ec
ec
00
00
ENDCHAR
STARTCHAR C035
ENCODING 29
SWIDTH 666 0
DWIDTH 8 0
BBX 8 13 0 -2
BITMAP
00
00
06
0c
fe
fe
38
fe
fe
60
c0
00
00
ENDCHAR
STARTCHAR C036
ENCODING 30
SWIDTH 666 0
DWIDTH 8 0
BBX 8 13 0 -2
BITMAP
00
3c
66
60
60
fc
60
60
60
f0
be
e0
00
ENDCHAR
STARTCHAR C037
ENCODING 31
SWIDTH 666 0
DWIDTH 8 0
BBX 8 13 0 -2
BITMAP
00
00
00
00
00
00
00
18
18
00
00
00
00
ENDCHAR
STARTCHAR C040
ENCODING 32
SWIDTH 666 0
DWIDTH 8 0
BBX 8 13 0 -2
BITMAP
00
00
00
00
00
00
00
00
00
00
00
00
00
ENDCHAR
STARTCHAR !
ENCODING 33
SWIDTH 666 0
DWIDTH 8 0
BBX 8 13 0 -2
BITMAP
00
18
18
18
18
18
18
18
00
18
18
00
00
ENDCHAR
STARTCHAR "
ENCODING 34
SWIDTH 666 0
DWIDTH 8 0
BBX 8 13 0 -2
BITMAP
00
6c
6c
6c
6c
00
00
00
00
00
00
00
00
ENDCHAR
STARTCHAR #
ENCODING 35
SWIDTH 666 0
DWIDTH 8 0
BBX 8 13 0 -2
BITMAP
00
00
6c
6c
fe
fe
6c
fe
fe
6c
6c
00
00
ENDCHAR
STARTCHAR $
ENCODING 36
SWIDTH 666 0
DWIDTH 8 0
BBX 8 13 0 -2
BITMAP
00
10
7c
d6
d0
f0
7c
1e
16
d6
7c
10
00
ENDCHAR
STARTCHAR %
ENCODING 37
SWIDTH 666 0
DWIDTH 8 0
BBX 8 13 0 -2
BITMAP
00
e6
a6
ec
18
18
30
30
6e
ca
ce
00
00
ENDCHAR
STARTCHAR &
ENCODING 38
SWIDTH 666 0
DWIDTH 8 0
BBX 8 13 0 -2
BITMAP
00
78
cc
cc
cc
78
78
ce
cc
cc
7e
00
00
ENDCHAR
STARTCHAR '
ENCODING 39
SWIDTH 666 0
DWIDTH 8 0
BBX 8 13 0 -2
BITMAP
00
3c
1c
1c
18
30
00
00
00
00
00
00
00
ENDCHAR
STARTCHAR (
ENCODING 40
SWIDTH 666 0
DWIDTH 8 0
BBX 8 13 0 -2
BITMAP
00
06
0c
18
18
30
30
30
18
18
0c
06
00
ENDCHAR
STARTCHAR )
ENCODING 41
SWIDTH 666 0
DWIDTH 8 0
BBX 8 13 0 -2
BITMAP
00
60
30
18
18
0c
0c
0c
18
18
30
60
00
ENDCHAR
STARTCHAR *
ENCODING 42
SWIDTH 666 0
DWIDTH 8 0
BBX 8 13 0 -2
BITMAP
00
00
10
d6
7c
38
ee
38
7c
d6
10
00
00
ENDCHAR
STARTCHAR +
ENCODING 43
SWIDTH 666 0
DWIDTH 8 0
BBX 8 13 0 -2
BITMAP
00
00
00
18
18
7e
7e
18
18
00
00
00
00
ENDCHAR
STARTCHAR ,
ENCODING 44
SWIDTH 666 0
DWIDTH 8 0
BBX 8 13 0 -2
BITMAP
00
00
00
00
00
00
00
3c
1c
1c
18
30
00
ENDCHAR
STARTCHAR -
ENCODING 45
SWIDTH 666 0
DWIDTH 8 0
BBX 8 13 0 -2
BITMAP
00
00
00
00
00
fe
fe
00
00
00
00
00
00
ENDCHAR
STARTCHAR .
ENCODING 46
SWIDTH 666 0
DWIDTH 8 0
BBX 8 13 0 -2
BITMAP
00
00
00
00
00
00
00
00
18
3c
18
00
00
ENDCHAR
STARTCHAR /
ENCODING 47
SWIDTH 666 0
DWIDTH 8 0
BBX 8 13 0 -2
BITMAP
00
02
06
06
0c
18
30
60
c0
c0
80
00
00
ENDCHAR
STARTCHAR 0
ENCODING 48
SWIDTH 666 0
DWIDTH 8 0
BBX 8 13 0 -2
BITMAP
00
38
6c
c6
c6
c6
c6
c6
c6
6c
38
00
00
ENDCHAR
STARTCHAR 1
ENCODING 49
SWIDTH 666 0
DWIDTH 8 0
BBX 8 13 0 -2
BITMAP
00
18
38
78
18
18
18
18
18
18
7e
00
00
ENDCHAR
STARTCHAR 2
ENCODING 50
SWIDTH 666 0
DWIDTH 8 0
BBX 8 13 0 -2
BITMAP
00
7c
c6
c6
06
0c
18
30
60
c0
fe
00
00
ENDCHAR
STARTCHAR 3
ENCODING 51
SWIDTH 666 0
DWIDTH 8 0
BBX 8 13 0 -2
BITMAP
00
fe
06
0c
18
3c
06
06
06
c6
7c
00
00
ENDCHAR
STARTCHAR 4
ENCODING 52
SWIDTH 666 0
DWIDTH 8 0
BBX 8 13 0 -2
BITMAP
00
0c
1c
3c
6c
cc
cc
fe
0c
0c
0c
00
00
ENDCHAR
STARTCHAR 5
ENCODING 53
SWIDTH 666 0
DWIDTH 8 0
BBX 8 13 0 -2
BITMAP
00
fe
c0
c0
fc
e6
06
06
06
c6
7c
00
00
ENDCHAR
STARTCHAR 6
ENCODING 54
SWIDTH 666 0
DWIDTH 8 0
BBX 8 13 0 -2
BITMAP
00
3c
60
c0
c0
fc
e6
c6
c6
e6
7c
00
00
ENDCHAR
STARTCHAR 7
ENCODING 55
SWIDTH 666 0
DWIDTH 8 0
BBX 8 13 0 -2
BITMAP
00
fe
06
06
0c
18
18
30
30
30
30
00
00
ENDCHAR
STARTCHAR 8
ENCODING 56
SWIDTH 666 0
DWIDTH 8 0
BBX 8 13 0 -2
BITMAP
00
7c
c6
c6
c6
7c
c6
c6
c6
c6
7c
00
00
ENDCHAR
STARTCHAR 9
ENCODING 57
SWIDTH 666 0
DWIDTH 8 0
BBX 8 13 0 -2
BITMAP
00
7c
ce
c6
c6
ce
7e
06
06
0c
78
00
00
ENDCHAR
STARTCHAR :
ENCODING 58
SWIDTH 666 0
DWIDTH 8 0
BBX 8 13 0 -2
BITMAP
00
00
00
18
3c
18
00
00
18
3c
18
00
00
ENDCHAR
STARTCHAR ;
ENCODING 59
SWIDTH 666 0
DWIDTH 8 0
BBX 8 13 0 -2
BITMAP
00
00
00
18
3c
18
00
3c
1c
1c
18
30
00
ENDCHAR
STARTCHAR <
ENCODING 60
SWIDTH 666 0
DWIDTH 8 0
BBX 8 13 0 -2
BITMAP
00
00
06
0c
18
30
60
30
18
0c
06
00
00
ENDCHAR
STARTCHAR =
ENCODING 61
SWIDTH 666 0
DWIDTH 8 0
BBX 8 13 0 -2
BITMAP
00
00
00
00
7e
7e
00
00
7e
7e
00
00
00
ENDCHAR
STARTCHAR >
ENCODING 62
SWIDTH 666 0
DWIDTH 8 0
BBX 8 13 0 -2
BITMAP
00
00
60
30
18
0c
06
0c
18
30
60
00
00
ENDCHAR
STARTCHAR ?
ENCODING 63
SWIDTH 666 0
DWIDTH 8 0
BBX 8 13 0 -2
BITMAP
00
7c
c6
c6
06
0c
18
18
00
18
18
00
00
ENDCHAR
STARTCHAR @
ENCODING 64
SWIDTH 666 0
DWIDTH 8 0
BBX 8 13 0 -2
BITMAP
00
00
7c
fe
ce
de
d2
d2
de
e0
7e
00
00
ENDCHAR
STARTCHAR A
ENCODING 65
SWIDTH 666 0
DWIDTH 8 0
BBX 8 13 0 -2
BITMAP
00
38
7c
c6
c6
c6
fe
c6
c6
c6
c6
00
00
ENDCHAR
STARTCHAR B
ENCODING 66
SWIDTH 666 0
DWIDTH 8 0
BBX 8 13 0 -2
BITMAP
00
fc
66
66
66
7c
66
66
66
66
fc
00
00
ENDCHAR
STARTCHAR C
ENCODING 67
SWIDTH 666 0
DWIDTH 8 0
BBX 8 13 0 -2
BITMAP
00
7c
e6
c6
c0
c0
c0
c0
c6
e6
7c
00
00
ENDCHAR
STARTCHAR D
ENCODING 68
SWIDTH 666 0
DWIDTH 8 0
BBX 8 13 0 -2
BITMAP
00
fc
66
66
66
66
66
66
66
66
fc
00
00
ENDCHAR
STARTCHAR E
ENCODING 69
SWIDTH 666 0
DWIDTH 8 0
BBX 8 13 0 -2
BITMAP
00
fe
c2
c0
c0
f8
c0
c0
c0
c2
fe
00
00
ENDCHAR
STARTCHAR F
ENCODING 70
SWIDTH 666 0
DWIDTH 8 0
BBX 8 13 0 -2
BITMAP
00
fe
c2
c0
c0
f8
c0
c0
c0
c0
c0
00
00
ENDCHAR
STARTCHAR G
ENCODING 71
SWIDTH 666 0
DWIDTH 8 0
BBX 8 13 0 -2
BITMAP
00
7c
c6
c6
c0
c0
c0
ce
c6
c6
7c
00
00
ENDCHAR
STARTCHAR H
ENCODING 72
SWIDTH 666 0
DWIDTH 8 0
BBX 8 13 0 -2
BITMAP
00
c6
c6
c6
c6
fe
c6
c6
c6
c6
c6
00
00
ENDCHAR
STARTCHAR I
ENCODING 73
SWIDTH 666 0
DWIDTH 8 0
BBX 8 13 0 -2
BITMAP
00
3c
18
18
18
18
18
18
18
18
3c
00
00
ENDCHAR
STARTCHAR J
ENCODING 74
SWIDTH 666 0
DWIDTH 8 0
BBX 8 13 0 -2
BITMAP
00
0e
06
06
06
06
06
06
c6
c6
7c
00
00
ENDCHAR
STARTCHAR K
ENCODING 75
SWIDTH 666 0
DWIDTH 8 0
BBX 8 13 0 -2
BITMAP
00
c6
c6
cc
d8
f0
f0
d8
cc
c6
c6
00
00
ENDCHAR
STARTCHAR L
ENCODING 76
SWIDTH 666 0
DWIDTH 8 0
BBX 8 13 0 -2
BITMAP
00
c0
c0
c0
c0
c0
c0
c0
c0
c2
fe
00
00
ENDCHAR
STARTCHAR M
ENCODING 77
SWIDTH 666 0
DWIDTH 8 0
BBX 8 13 0 -2
BITMAP
00
c6
c6
ee
fe
d6
c6
c6
c6
c6
c6
00
00
ENDCHAR
STARTCHAR N
ENCODING 78
SWIDTH 666 0
DWIDTH 8 0
BBX 8 13 0 -2
BITMAP
00
c6
c6
e6
e6
f6
de
ce
ce
c6
c6
00
00
ENDCHAR
STARTCHAR O
ENCODING 79
SWIDTH 666 0
DWIDTH 8 0
BBX 8 13 0 -2
BITMAP
00
7c
c6
c6
c6
c6
c6
c6
c6
c6
7c
00
00
ENDCHAR
STARTCHAR P
ENCODING 80
SWIDTH 666 0
DWIDTH 8 0
BBX 8 13 0 -2
BITMAP
00
fc
c6
c6
c6
c6
fc
c0
c0
c0
c0
00
00
ENDCHAR
STARTCHAR Q
ENCODING 81
SWIDTH 666 0
DWIDTH 8 0
BBX 8 13 0 -2
BITMAP
00
7c
c6
c6
c6
c6
c6
c6
c6
de
7c
06
00
ENDCHAR
STARTCHAR R
ENCODING 82
SWIDTH 666 0
DWIDTH 8 0
BBX 8 13 0 -2
BITMAP
00
fc
c6
c6
c6
fc
f8
cc
cc
c6
c6
00
00
ENDCHAR
STARTCHAR S
ENCODING 83
SWIDTH 666 0
DWIDTH 8 0
BBX 8 13 0 -2
BITMAP
00
7c
c6
c6
c0
7c
06
06
c6
c6
7c
00
00
ENDCHAR
STARTCHAR T
ENCODING 84
SWIDTH 666 0
DWIDTH 8 0
BBX 8 13 0 -2
BITMAP
00
7e
18
18
18
18
18
18
18
18
18
00
00
ENDCHAR
STARTCHAR U
ENCODING 85
SWIDTH 666 0
DWIDTH 8 0
BBX 8 13 0 -2
BITMAP
00
c6
c6
c6
c6
c6
c6
c6
c6
c6
7c
00
00
ENDCHAR
STARTCHAR V
ENCODING 86
SWIDTH 666 0
DWIDTH 8 0
BBX 8 13 0 -2
BITMAP
00
c6
c6
c6
c6
44
6c
6c
38
38
10
00
00
ENDCHAR
STARTCHAR W
ENCODING 87
SWIDTH 666 0
DWIDTH 8 0
BBX 8 13 0 -2
BITMAP
00
c6
c6
c6
c6
c6
c6
d6
d6
fe
6c
00
00
ENDCHAR
STARTCHAR X
ENCODING 88
SWIDTH 666 0
DWIDTH 8 0
BBX 8 13 0 -2
BITMAP
00
c6
c6
6c
6c
38
38
6c
6c
c6
c6
00
00
ENDCHAR
STARTCHAR Y
ENCODING 89
SWIDTH 666 0
DWIDTH 8 0
BBX 8 13 0 -2
BITMAP
00
66
66
66
3c
3c
18
18
18
18
18
00
00
ENDCHAR
STARTCHAR Z
ENCODING 90
SWIDTH 666 0
DWIDTH 8 0
BBX 8 13 0 -2
BITMAP
00
fe
06
06
0c
18
30
60
c0
c0
fe
00
00
ENDCHAR
STARTCHAR [
ENCODING 91
SWIDTH 666 0
DWIDTH 8 0
BBX 8 13 0 -2
BITMAP
00
3e
30
30
30
30
30
30
30
30
30
3e
00
ENDCHAR
STARTCHAR \
ENCODING 92
SWIDTH 666 0
DWIDTH 8 0
BBX 8 13 0 -2
BITMAP
00
80
c0
c0
60
30
18
0c
06
06
02
00
00
ENDCHAR
STARTCHAR ]
ENCODING 93
SWIDTH 666 0
DWIDTH 8 0
BBX 8 13 0 -2
BITMAP
00
7c
0c
0c
0c
0c
0c
0c
0c
0c
0c
7c
00
ENDCHAR
STARTCHAR ^
ENCODING 94
SWIDTH 666 0
DWIDTH 8 0
BBX 8 13 0 -2
BITMAP
00
10
38
6c
c6
00
00
00
00
00
00
00
00
ENDCHAR
STARTCHAR _
ENCODING 95
SWIDTH 666 0
DWIDTH 8 0
BBX 8 13 0 -2
BITMAP
00
00
00
00
00
00
00
00
00
00
00
fe
00
ENDCHAR
STARTCHAR `
ENCODING 96
SWIDTH 666 0
DWIDTH 8 0
BBX 8 13 0 -2
BITMAP
00
3c
38
38
18
0c
00
00
00
00
00
00
00
ENDCHAR
STARTCHAR a
ENCODING 97
SWIDTH 666 0
DWIDTH 8 0
BBX 8 13 0 -2
BITMAP
00
00
00
00
7c
06
7e
c6
c6
ce
7e
00
00
ENDCHAR
STARTCHAR b
ENCODING 98
SWIDTH 666 0
DWIDTH 8 0
BBX 8 13 0 -2
BITMAP
00
c0
c0
c0
fc
e6
c6
c6
c6
e6
fc
00
00
ENDCHAR
STARTCHAR c
ENCODING 99
SWIDTH 666 0
DWIDTH 8 0
BBX 8 13 0 -2
BITMAP
00
00
00
00
7c
e6
c0
c0
c0
e6
7c
00
00
ENDCHAR
STARTCHAR d
ENCODING 1
SWIDTH 666 0
DWIDTH 8 0
BBX 8 13 0 -2
BITMAP
00
06
06
06
7e
ce
c6
c6
c6
ce
7e
00
00
ENDCHAR
STARTCHAR e
ENCODING 101
SWIDTH 666 0
DWIDTH 8 0
BBX 8 13 0 -2
BITMAP
00
00
00
00
7c
c6
c6
fe
c0
c6
7c
00
00
ENDCHAR
STARTCHAR f
ENCODING 102
SWIDTH 666 0
DWIDTH 8 0
BBX 8 13 0 -2
BITMAP
00
3c
66
60
60
60
fc
60
60
60
60
00
00
ENDCHAR
STARTCHAR g
ENCODING 103
SWIDTH 666 0
DWIDTH 8 0
BBX 8 13 0 -2
BITMAP
00
00
00
00
7e
cc
cc
cc
78
f0
7c
c6
7c
ENDCHAR
STARTCHAR h
ENCODING 104
SWIDTH 666 0
DWIDTH 8 0
BBX 8 13 0 -2
BITMAP
00
c0
c0
c0
fc
e6
c6
c6
c6
c6
c6
00
00
ENDCHAR
STARTCHAR i
ENCODING 105
SWIDTH 666 0
DWIDTH 8 0
BBX 8 13 0 -2
BITMAP
00
00
18
18
00
38
18
18
18
18
3c
00
00
ENDCHAR
STARTCHAR j
ENCODING 106
SWIDTH 666 0
DWIDTH 8 0
BBX 8 13 0 -2
BITMAP
00
00
06
06
00
0e
06
06
06
06
c6
c6
7c
ENDCHAR
STARTCHAR k
ENCODING 107
SWIDTH 666 0
DWIDTH 8 0
BBX 8 13 0 -2
BITMAP
00
c0
c0
c0
cc
d8
f0
f0
d8
cc
c6
00
00
ENDCHAR
STARTCHAR l
ENCODING 108
SWIDTH 666 0
DWIDTH 8 0
BBX 8 13 0 -2
BITMAP
00
38
18
18
18
18
18
18
18
18
3c
00
00
ENDCHAR
STARTCHAR m
ENCODING 109
SWIDTH 666 0
DWIDTH 8 0
BBX 8 13 0 -2
BITMAP
00
00
00
00
6c
fe
d6
d6
c6
c6
c6
00
00
ENDCHAR
STARTCHAR n
ENCODING 110
SWIDTH 666 0
DWIDTH 8 0
BBX 8 13 0 -2
BITMAP
00
00
00
00
fc
e6
c6
c6
c6
c6
c6
00
00
ENDCHAR
STARTCHAR o
ENCODING 111
SWIDTH 666 0
DWIDTH 8 0
BBX 8 13 0 -2
BITMAP
00
00
00
00
7c
c6
c6
c6
c6
c6
7c
00
00
ENDCHAR
STARTCHAR p
ENCODING 112
SWIDTH 666 0
DWIDTH 8 0
BBX 8 13 0 -2
BITMAP
00
00
00
00
fc
e6
c6
c6
c6
e6
fc
c0
c0
ENDCHAR
STARTCHAR q
ENCODING 113
SWIDTH 666 0
DWIDTH 8 0
BBX 8 13 0 -2
BITMAP
00
00
00
00
7e
ce
c6
c6
c6
ce
7e
06
06
ENDCHAR
STARTCHAR r
ENCODING 114
SWIDTH 666 0
DWIDTH 8 0
BBX 8 13 0 -2
BITMAP
00
00
00
00
fc
e6
c0
c0
c0
c0
c0
00
00
ENDCHAR
STARTCHAR s
ENCODING 115
SWIDTH 666 0
DWIDTH 8 0
BBX 8 13 0 -2
BITMAP
00
00
00
00
7c
c6
78
3c
06
c6
7c
00
00
ENDCHAR
STARTCHAR t
ENCODING 116
SWIDTH 666 0
DWIDTH 8 0
BBX 8 13 0 -2
BITMAP
00
60
60
60
60
fc
60
60
60
66
3c
00
00
ENDCHAR
STARTCHAR u
ENCODING 117
SWIDTH 666 0
DWIDTH 8 0
BBX 8 13 0 -2
BITMAP
00
00
00
00
c6
c6
c6
c6
c6
ce
7e
00
00
ENDCHAR
STARTCHAR v
ENCODING 118
SWIDTH 666 0
DWIDTH 8 0
BBX 8 13 0 -2
BITMAP
00
00
00
00
c6
c6
c6
c6
6c
6c
38
00
00
ENDCHAR
STARTCHAR w
ENCODING 119
SWIDTH 666 0
DWIDTH 8 0
BBX 8 13 0 -2
BITMAP
00
00
00
00
c6
c6
c6
d6
d6
fe
6c
00
00
ENDCHAR
STARTCHAR x
ENCODING 120
SWIDTH 666 0
DWIDTH 8 0
BBX 8 13 0 -2
BITMAP
00
00
00
00
c6
c6
7c
38
7c
c6
c6
00
00
ENDCHAR
STARTCHAR y
ENCODING 121
SWIDTH 666 0
DWIDTH 8 0
BBX 8 13 0 -2
BITMAP
00
00
00
00
c6
c6
c6
c6
ce
7e
06
c6
7c
ENDCHAR
STARTCHAR z
ENCODING 122
SWIDTH 666 0
DWIDTH 8 0
BBX 8 13 0 -2
BITMAP
00
00
00
00
fe
0c
18
30
60
c0
fe
00
00
ENDCHAR
STARTCHAR {
ENCODING 123
SWIDTH 666 0
DWIDTH 8 0
BBX 8 13 0 -2
BITMAP
00
1e
30
30
30
18
70
18
30
30
30
1e
00
ENDCHAR
STARTCHAR |
ENCODING 124
SWIDTH 666 0
DWIDTH 8 0
BBX 8 13 0 -2
BITMAP
00
18
18
18
18
18
18
18
18
18
18
00
00
ENDCHAR
STARTCHAR }
ENCODING 125
SWIDTH 666 0
DWIDTH 8 0
BBX 8 13 0 -2
BITMAP
00
78
0c
0c
0c
18
0e
18
0c
0c
0c
78
00
ENDCHAR
STARTCHAR ~
ENCODING 126
SWIDTH 666 0
DWIDTH 8 0
BBX 8 13 0 -2
BITMAP
00
00
72
fe
9c
00
00
00
00
00
00
00
00
ENDCHAR
STARTCHAR C177
ENCODING 127
SWIDTH 666 0
DWIDTH 8 0
BBX 8 13 0 -2
BITMAP
00
00
00
00
00
00
00
00
00
00
00
00
00
ENDCHAR
STARTCHAR 00a0
ENCODING 160
SWIDTH 666 0
DWIDTH 8 0
BBX 8 13 0 -2
BITMAP
00
00
00
00
00
00
00
00
00
00
00
00
00
ENDCHAR
STARTCHAR 00a1
ENCODING 161
SWIDTH 666 0
DWIDTH 8 0
BBX 8 13 0 -2
BITMAP
00
18
18
00
18
18
18
18
18
18
18
00
00
ENDCHAR
STARTCHAR 00a2
ENCODING 162
SWIDTH 666 0
DWIDTH 8 0
BBX 8 13 0 -2
BITMAP
00
00
10
7c
d4
d0
d0
d4
7c
10
00
00
00
ENDCHAR
STARTCHAR 00a3
ENCODING 163
SWIDTH 666 0
DWIDTH 8 0
BBX 8 13 0 -2
BITMAP
00
3c
66
60
60
fc
60
60
60
f0
be
e0
00
ENDCHAR
STARTCHAR 00a4
ENCODING 164
SWIDTH 666 0
DWIDTH 8 0
BBX 8 13 0 -2
BITMAP
00
00
00
c6
fe
6c
44
6c
fe
c6
00
00
00
ENDCHAR
STARTCHAR 00a5
ENCODING 165
SWIDTH 666 0
DWIDTH 8 0
BBX 8 13 0 -2
BITMAP
00
66
66
66
3c
3c
7e
18
7e
18
18
00
00
ENDCHAR
STARTCHAR 00a6
ENCODING 166
SWIDTH 666 0
DWIDTH 8 0
BBX 8 13 0 -2
BITMAP
00
18
18
18
18
00
00
18
18
18
18
00
00
ENDCHAR
STARTCHAR 00a7
ENCODING 167
SWIDTH 666 0
DWIDTH 8 0
BBX 8 13 0 -2
BITMAP
00
3c
66
60
3c
66
66
3c
06
66
3c
00
00
ENDCHAR
STARTCHAR 00a8
ENCODING 168
SWIDTH 666 0
DWIDTH 8 0
BBX 8 13 0 -2
BITMAP
00
6c
6c
00
00
00
00
00
00
00
00
00
00
ENDCHAR
STARTCHAR 00a9
ENCODING 169
SWIDTH 666 0
DWIDTH 8 0
BBX 8 13 0 -2
BITMAP
00
7c
c6
ba
ea
e2
ea
ba
c6
7c
00
00
00
ENDCHAR
STARTCHAR 00aa
ENCODING 170
SWIDTH 666 0
DWIDTH 8 0
BBX 8 13 0 -2
BITMAP
00
78
0c
7c
4c
7c
00
7c
00
00
00
00
00
ENDCHAR
STARTCHAR 00ab
ENCODING 171
SWIDTH 666 0
DWIDTH 8 0
BBX 8 13 0 -2
BITMAP
00
00
00
36
6c
d8
b0
d8
6c
36
00
00
00
ENDCHAR
STARTCHAR 00ac
ENCODING 172
SWIDTH 666 0
DWIDTH 8 0
BBX 8 13 0 -2
BITMAP
00
00
00
00
00
fc
fc
04
04
04
00
00
00
ENDCHAR
STARTCHAR 00ad
ENCODING 173
SWIDTH 666 0
DWIDTH 8 0
BBX 8 13 0 -2
BITMAP
00
00
00
00
00
7e
7e
00
00
00
00
00
00
ENDCHAR
STARTCHAR 00ae
ENCODING 174
SWIDTH 666 0
DWIDTH 8 0
BBX 8 13 0 -2
BITMAP
00
7c
c6
ba
aa
ba
b2
aa
c6
7c
00
00
00
ENDCHAR
STARTCHAR 00af
ENCODING 175
SWIDTH 666 0
DWIDTH 8 0
BBX 8 13 0 -2
BITMAP
00
7e
7e
00
00
00
00
00
00
00
00
00
00
ENDCHAR
STARTCHAR 00b0
ENCODING 176
SWIDTH 666 0
DWIDTH 8 0
BBX 8 13 0 -2
BITMAP
00
3c
66
66
3c
00
00
00
00
00
00
00
00
ENDCHAR
STARTCHAR 00b1
ENCODING 177
SWIDTH 666 0
DWIDTH 8 0
BBX 8 13 0 -2
BITMAP
00
00
18
18
7e
7e
18
18
00
7e
7e
00
00
ENDCHAR
STARTCHAR 00b2
ENCODING 178
SWIDTH 666 0
DWIDTH 8 0
BBX 8 13 0 -2
BITMAP
00
70
58
18
30
60
78
00
00
00
00
00
00
ENDCHAR
STARTCHAR 00b3
ENCODING 179
SWIDTH 666 0
DWIDTH 8 0
BBX 8 13 0 -2
BITMAP
00
70
58
30
18
58
70
00
00
00
00
00
00
ENDCHAR
STARTCHAR 00b4
ENCODING 180
SWIDTH 666 0
DWIDTH 8 0
BBX 8 13 0 -2
BITMAP
00
18
30
00
00
00
00
00
00
00
00
00
00
ENDCHAR
STARTCHAR 00b5
ENCODING 181
SWIDTH 666 0
DWIDTH 8 0
BBX 8 13 0 -2
BITMAP
00
00
00
00
c6
c6
c6
c6
c6
ee
fe
80
00
ENDCHAR
STARTCHAR 00b6
ENCODING 182
SWIDTH 666 0
DWIDTH 8 0
BBX 8 13 0 -2
BITMAP
00
3e
7a
ca
ca
ca
7a
3a
0a
0a
0a
0e
00
ENDCHAR
STARTCHAR 00b7
ENCODING 183
SWIDTH 666 0
DWIDTH 8 0
BBX 8 13 0 -2
BITMAP
00
00
00
00
00
18
18
00
00
00
00
00
00
ENDCHAR
STARTCHAR 00b8
ENCODING 184
SWIDTH 666 0
DWIDTH 8 0
BBX 8 13 0 -2
BITMAP
00
00
00
00
00
00
00
00
00
00
18
48
30
ENDCHAR
STARTCHAR 00b9
ENCODING 185
SWIDTH 666 0
DWIDTH 8 0
BBX 8 13 0 -2
BITMAP
00
30
70
30
30
30
78
00
00
00
00
00
00
ENDCHAR
STARTCHAR 00ba
ENCODING 186
SWIDTH 666 0
DWIDTH 8 0
BBX 8 13 0 -2
BITMAP
00
38
7c
44
7c
38
00
7c
00
00
00
00
00
ENDCHAR
STARTCHAR 00bb
ENCODING 187
SWIDTH 666 0
DWIDTH 8 0
BBX 8 13 0 -2
BITMAP
00
00
00
d8
6c
36
1a
36
6c
d8
00
00
00
ENDCHAR
STARTCHAR 00bc
ENCODING 188
SWIDTH 666 0
DWIDTH 8 0
BBX 8 13 0 -2
BITMAP
00
60
e0
60
60
62
f6
0e
1a
1e
06
00
00
ENDCHAR
STARTCHAR 00bd
ENCODING 189
SWIDTH 666 0
DWIDTH 8 0
BBX 8 13 0 -2
BITMAP
00
60
e0
60
60
7c
f6
06
0c
18
1e
00
00
ENDCHAR
STARTCHAR 00be
ENCODING 190
SWIDTH 666 0
DWIDTH 8 0
BBX 8 13 0 -2
BITMAP
00
e0
b0
60
30
b2
e6
0e
1a
1e
06
00
00
ENDCHAR
STARTCHAR 00bf
ENCODING 191
SWIDTH 666 0
DWIDTH 8 0
BBX 8 13 0 -2
BITMAP
00
18
18
00
18
18
30
60
66
66
3c
00
00
ENDCHAR
STARTCHAR 00c0
ENCODING 192
SWIDTH 666 0
DWIDTH 8 0
BBX 8 13 0 -2
BITMAP
00
30
18
00
38
7c
c6
c6
fe
c6
c6
00
00
ENDCHAR
STARTCHAR 00c1
ENCODING 193
SWIDTH 666 0
DWIDTH 8 0
BBX 8 13 0 -2
BITMAP
00
18
30
00
38
7c
c6
c6
fe
c6
c6
00
00
ENDCHAR
STARTCHAR 00c2
ENCODING 194
SWIDTH 666 0
DWIDTH 8 0
BBX 8 13 0 -2
BITMAP
00
38
6c
00
38
7c
c6
c6
fe
c6
c6
00
00
ENDCHAR
STARTCHAR 00c3
ENCODING 195
SWIDTH 666 0
DWIDTH 8 0
BBX 8 13 0 -2
BITMAP
00
34
58
00
38
7c
c6
c6
fe
c6
c6
00
00
ENDCHAR
STARTCHAR 00c4
ENCODING 196
SWIDTH 666 0
DWIDTH 8 0
BBX 8 13 0 -2
BITMAP
00
6c
6c
00
38
7c
c6
c6
fe
c6
c6
00
00
ENDCHAR
STARTCHAR 00c5
ENCODING 197
SWIDTH 666 0
DWIDTH 8 0
BBX 8 13 0 -2
BITMAP
00
38
28
38
38
7c
c6
c6
fe
c6
c6
00
00
ENDCHAR
STARTCHAR 00c6
ENCODING 198
SWIDTH 666 0
DWIDTH 8 0
BBX 8 13 0 -2
BITMAP
00
00
00
7e
f8
d8
dc
f8
d8
d8
de
00
00
ENDCHAR
STARTCHAR 00c7
ENCODING 199
SWIDTH 666 0
DWIDTH 8 0
BBX 8 13 0 -2
BITMAP
00
00
00
7c
e6
c0
c0
c0
e6
7c
18
48
30
ENDCHAR
STARTCHAR 00c8
ENCODING 2
SWIDTH 666 0
DWIDTH 8 0
BBX 8 13 0 -2
BITMAP
00
30
18
00
fe
c2
c0
f8
c0
c2
fe
00
00
ENDCHAR
STARTCHAR 00c9
ENCODING 201
SWIDTH 666 0
DWIDTH 8 0
BBX 8 13 0 -2
BITMAP
00
18
30
00
fe
c2
c0
f8
c0
c2
fe
00
00
ENDCHAR
STARTCHAR 00ca
ENCODING 202
SWIDTH 666 0
DWIDTH 8 0
BBX 8 13 0 -2
BITMAP
00
38
6c
00
fe
c2
c0
f8
c0
c2
fe
00
00
ENDCHAR
STARTCHAR 00cb
ENCODING 203
SWIDTH 666 0
DWIDTH 8 0
BBX 8 13 0 -2
BITMAP
00
6c
6c
00
fe
c2
c0
f8
c0
c2
fe
00
00
ENDCHAR
STARTCHAR 00cc
ENCODING 204
SWIDTH 666 0
DWIDTH 8 0
BBX 8 13 0 -2
BITMAP
00
30
18
00
3c
18
18
18
18
18
3c
00
00
ENDCHAR
STARTCHAR 00cd
ENCODING 205
SWIDTH 666 0
DWIDTH 8 0
BBX 8 13 0 -2
BITMAP
00
0c
18
00
3c
18
18
18
18
18
3c
00
00
ENDCHAR
STARTCHAR 00ce
ENCODING 206
SWIDTH 666 0
DWIDTH 8 0
BBX 8 13 0 -2
BITMAP
00
1c
36
00
3c
18
18
18
18
18
3c
00
00
ENDCHAR
STARTCHAR 00cf
ENCODING 207
SWIDTH 666 0
DWIDTH 8 0
BBX 8 13 0 -2
BITMAP
00
36
36
00
3c
18
18
18
18
18
3c
00
00
ENDCHAR
STARTCHAR 00d0
ENCODING 208
SWIDTH 666 0
DWIDTH 8 0
BBX 8 13 0 -2
BITMAP
00
00
00
fc
66
66
f6
66
66
66
fc
00
00
ENDCHAR
STARTCHAR 00d1
ENCODING 209
SWIDTH 666 0
DWIDTH 8 0
BBX 8 13 0 -2
BITMAP
00
34
58
00
c6
e6
f6
d6
de
ce
c6
00
00
ENDCHAR
STARTCHAR 00d2
ENCODING 210
SWIDTH 666 0
DWIDTH 8 0
BBX 8 13 0 -2
BITMAP
00
30
18
00
7c
c6
c6
c6
c6
c6
7c
00
00
ENDCHAR
STARTCHAR 00d3
ENCODING 211
SWIDTH 666 0
DWIDTH 8 0
BBX 8 13 0 -2
BITMAP
00
18
30
00
7c
c6
c6
c6
c6
c6
7c
00
00
ENDCHAR
STARTCHAR 00d4
ENCODING 212
SWIDTH 666 0
DWIDTH 8 0
BBX 8 13 0 -2
BITMAP
00
38
6c
00
7c
c6
c6
c6
c6
c6
7c
00
00
ENDCHAR
STARTCHAR 00d5
ENCODING 213
SWIDTH 666 0
DWIDTH 8 0
BBX 8 13 0 -2
BITMAP
00
34
58
00
7c
c6
c6
c6
c6
c6
7c
00
00
ENDCHAR
STARTCHAR 00d6
ENCODING 214
SWIDTH 666 0
DWIDTH 8 0
BBX 8 13 0 -2
BITMAP
00
6c
6c
00
7c
c6
c6
c6
c6
c6
7c
00
00
ENDCHAR
STARTCHAR 00d7
ENCODING 215
SWIDTH 666 0
DWIDTH 8 0
BBX 8 13 0 -2
BITMAP
00
00
00
00
c6
c6
7c
38
7c
c6
c6
00
00
ENDCHAR
STARTCHAR 00d8
ENCODING 216
SWIDTH 666 0
DWIDTH 8 0
BBX 8 13 0 -2
BITMAP
00
00
02
7c
ce
d6
d6
d6
d6
e6
7c
80
00
ENDCHAR
STARTCHAR 00d9
ENCODING 217
SWIDTH 666 0
DWIDTH 8 0
BBX 8 13 0 -2
BITMAP
00
30
18
00
c6
c6
c6
c6
c6
c6
7c
00
00
ENDCHAR
STARTCHAR 00da
ENCODING 218
SWIDTH 666 0
DWIDTH 8 0
BBX 8 13 0 -2
BITMAP
00
18
30
00
c6
c6
c6
c6
c6
c6
7c
00
00
ENDCHAR
STARTCHAR 00db
ENCODING 219
SWIDTH 666 0
DWIDTH 8 0
BBX 8 13 0 -2
BITMAP
00
38
6c
00
c6
c6
c6
c6
c6
c6
7c
00
00
ENDCHAR
STARTCHAR 00dc
ENCODING 220
SWIDTH 666 0
DWIDTH 8 0
BBX 8 13 0 -2
BITMAP
00
6c
6c
00
c6
c6
c6
c6
c6
c6
7c
00
00
ENDCHAR
STARTCHAR 00dd
ENCODING 221
SWIDTH 666 0
DWIDTH 8 0
BBX 8 13 0 -2
BITMAP
00
0c
18
00
66
24
3c
18
18
18
18
00
00
ENDCHAR
STARTCHAR 00de
ENCODING 222
SWIDTH 666 0
DWIDTH 8 0
BBX 8 13 0 -2
BITMAP
00
00
c0
fc
c6
c6
c6
fc
c0
c0
c0
00
00
ENDCHAR
STARTCHAR 00df
ENCODING 223
SWIDTH 666 0
DWIDTH 8 0
BBX 8 13 0 -2
BITMAP
00
00
00
7c
c6
c6
fc
c6
c6
c6
fc
80
00
ENDCHAR
STARTCHAR 00e0
ENCODING 224
SWIDTH 666 0
DWIDTH 8 0
BBX 8 13 0 -2
BITMAP
00
30
18
00
7c
06
7e
c6
c6
ce
7e
00
00
ENDCHAR
STARTCHAR 00e1
ENCODING 225
SWIDTH 666 0
DWIDTH 8 0
BBX 8 13 0 -2
BITMAP
00
18
30
00
7c
06
7e
c6
c6
ce
7e
00
00
ENDCHAR
STARTCHAR 00e2
ENCODING 226
SWIDTH 666 0
DWIDTH 8 0
BBX 8 13 0 -2
BITMAP
00
38
6c
00
7c
06
7e
c6
c6
ce
7e
00
00
ENDCHAR
STARTCHAR 00e3
ENCODING 227
SWIDTH 666 0
DWIDTH 8 0
BBX 8 13 0 -2
BITMAP
00
34
58
00
7c
06
7e
c6
c6
ce
7e
00
00
ENDCHAR
STARTCHAR 00e4
ENCODING 228
SWIDTH 666 0
DWIDTH 8 0
BBX 8 13 0 -2
BITMAP
00
6c
6c
00
7c
06
7e
c6
c6
ce
7e
00
00
ENDCHAR
STARTCHAR 00e5
ENCODING 229
SWIDTH 666 0
DWIDTH 8 0
BBX 8 13 0 -2
BITMAP
00
38
28
38
7c
06
7e
c6
c6
ce
7e
00
00
ENDCHAR
STARTCHAR 00e6
ENCODING 230
SWIDTH 666 0
DWIDTH 8 0
BBX 8 13 0 -2
BITMAP
00
00
00
ee
ba
3a
7e
b8
b8
ba
7e
00
00
ENDCHAR
STARTCHAR 00e7
ENCODING 231
SWIDTH 666 0
DWIDTH 8 0
BBX 8 13 0 -2
BITMAP
00
00
00
7c
e6
c0
c0
c0
e6
7c
18
48
30
ENDCHAR
STARTCHAR 00e8
ENCODING 232
SWIDTH 666 0
DWIDTH 8 0
BBX 8 13 0 -2
BITMAP
00
30
18
00
7c
c6
c6
fe
c0
c6
7c
00
00
ENDCHAR
STARTCHAR 00e9
ENCODING 233
SWIDTH 666 0
DWIDTH 8 0
BBX 8 13 0 -2
BITMAP
00
18
30
00
7c
c6
c6
fe
c0
c6
7c
00
00
ENDCHAR
STARTCHAR 00ea
ENCODING 234
SWIDTH 666 0
DWIDTH 8 0
BBX 8 13 0 -2
BITMAP
00
38
6c
00
7c
c6
c6
fe
c0
c6
7c
00
00
ENDCHAR
STARTCHAR 00eb
ENCODING 235
SWIDTH 666 0
DWIDTH 8 0
BBX 8 13 0 -2
BITMAP
00
6c
6c
00
7c
c6
c6
fe
c0
c6
7c
00
00
ENDCHAR
STARTCHAR 00ec
ENCODING 236
SWIDTH 666 0
DWIDTH 8 0
BBX 8 13 0 -2
BITMAP
00
30
18
00
38
18
18
18
18
18
3c
00
00
ENDCHAR
STARTCHAR 00ed
ENCODING 237
SWIDTH 666 0
DWIDTH 8 0
BBX 8 13 0 -2
BITMAP
00
18
30
00
38
18
18
18
18
18
3c
00
00
ENDCHAR
STARTCHAR 00ee
ENCODING 238
SWIDTH 666 0
DWIDTH 8 0
BBX 8 13 0 -2
BITMAP
00
38
6c
00
38
18
18
18
18
18
3c
00
00
ENDCHAR
STARTCHAR 00ef
ENCODING 239
SWIDTH 666 0
DWIDTH 8 0
BBX 8 13 0 -2
BITMAP
00
6c
6c
00
38
18
18
18
18
18
3c
00
00
ENDCHAR
STARTCHAR 00f0
ENCODING 240
SWIDTH 666 0
DWIDTH 8 0
BBX 8 13 0 -2
BITMAP
00
6c
38
48
7c
c6
c6
c6
c6
c6
7c
00
00
ENDCHAR
STARTCHAR 00f1
ENCODING 241
SWIDTH 666 0
DWIDTH 8 0
BBX 8 13 0 -2
BITMAP
00
34
58
00
fc
e6
c6
c6
c6
c6
c6
00
00
ENDCHAR
STARTCHAR 00f2
ENCODING 242
SWIDTH 666 0
DWIDTH 8 0
BBX 8 13 0 -2
BITMAP
00
30
18
00
7c
c6
c6
c6
c6
c6
7c
00
00
ENDCHAR
STARTCHAR 00f3
ENCODING 243
SWIDTH 666 0
DWIDTH 8 0
BBX 8 13 0 -2
BITMAP
00
18
30
00
7c
c6
c6
c6
c6
c6
7c
00
00
ENDCHAR
STARTCHAR 00f4
ENCODING 244
SWIDTH 666 0
DWIDTH 8 0
BBX 8 13 0 -2
BITMAP
00
38
6c
00
7c
c6
c6
c6
c6
c6
7c
00
00
ENDCHAR
STARTCHAR 00f5
ENCODING 245
SWIDTH 666 0
DWIDTH 8 0
BBX 8 13 0 -2
BITMAP
00
34
58
00
7c
c6
c6
c6
c6
c6
7c
00
00
ENDCHAR
STARTCHAR 00f6
ENCODING 246
SWIDTH 666 0
DWIDTH 8 0
BBX 8 13 0 -2
BITMAP
00
6c
6c
00
7c
c6
c6
c6
c6
c6
7c
00
00
ENDCHAR
STARTCHAR 00f7
ENCODING 247
SWIDTH 666 0
DWIDTH 8 0
BBX 8 13 0 -2
BITMAP
00
00
00
18
18
00
7e
00
18
18
00
00
00
ENDCHAR
STARTCHAR 00f8
ENCODING 248
SWIDTH 666 0
DWIDTH 8 0
BBX 8 13 0 -2
BITMAP
00
00
00
02
7c
ce
d6
d6
d6
e6
7c
80
00
ENDCHAR
STARTCHAR 00f9
ENCODING 249
SWIDTH 666 0
DWIDTH 8 0
BBX 8 13 0 -2
BITMAP
00
30
18
00
c6
c6
c6
c6
c6
ce
7e
00
00
ENDCHAR
STARTCHAR 00fa
ENCODING 250
SWIDTH 666 0
DWIDTH 8 0
BBX 8 13 0 -2
BITMAP
00
18
30
00
c6
c6
c6
c6
c6
ce
7e
00
00
ENDCHAR
STARTCHAR 00fb
ENCODING 251
SWIDTH 666 0
DWIDTH 8 0
BBX 8 13 0 -2
BITMAP
00
38
6c
00
c6
c6
c6
c6
c6
ce
7e
00
00
ENDCHAR
STARTCHAR 00fc
ENCODING 252
SWIDTH 666 0
DWIDTH 8 0
BBX 8 13 0 -2
BITMAP
00
6c
6c
00
c6
c6
c6
c6
c6
ce
7e
00
00
ENDCHAR
STARTCHAR 00fd
ENCODING 253
SWIDTH 666 0
DWIDTH 8 0
BBX 8 13 0 -2
BITMAP
00
18
30
00
c6
c6
c6
c6
ce
7e
06
c6
7c
ENDCHAR
STARTCHAR 00fe
ENCODING 254
SWIDTH 666 0
DWIDTH 8 0
BBX 8 13 0 -2
BITMAP
00
00
c0
c0
fc
e6
c6
c6
c6
e6
fc
c0
c0
ENDCHAR
STARTCHAR 00ff
ENCODING 255
SWIDTH 666 0
DWIDTH 8 0
BBX 8 13 0 -2
BITMAP
00
6c
6c
00
c6
c6
c6
c6
ce
7e
06
c6
7c
ENDCHAR
ENDFONT
